# xmcd CD database file
#
# Track frame offsets:
#	150
#	13815
#	28787
#	41780
#	56168
#	69862
#	84557
#	100109
#	114765
#	128534
#	143901
#	156216
#	172340
#	187261
#	221924
#	226428
#	238529
#	255035
#	272138
#	289563
#	300851
#	310713
#	324323
#	336066
#
# Disc length: 4595 seconds
#
# Revision: 0
# Processed by: cddbd v1.5.2PL0 Copyright (c) Steve Scherf et al.
# Submitted via: CDex 1.51
#
DISCID=4c11f118
DTITLE=Fats Waller - A Career Perspective 1922-1943
DYEAR=1900
DGENRE=Jazz
TTITLE0=Birmingham Blues
TTITLE1=Red Hot Dan
TTITLE2=The Henderson Stomp
TTITLE3=I'm Crazy 'Bout My Baby
TTITLE4=Royal Garden Blues
TTITLE5=You Rascal You
TTITLE6=That's What I Like About You
TTITLE7=Chances Are
TTITLE8=Mean Old Bed Bug Blues
TTITLE9=A Porter's Love Song To A Chambermaid
TTITLE10=I Wish I Were Twins
TTITLE11=Let's Pretend There's A Moon
TTITLE12=You're Not The Only Oyster In The Sea
TTITLE13=Baby Brown/Viper's Drag/How Can You Face Me?/Down Home Blues
TTITLE14=Yacht Club Swing
TTITLE15=Hold My Hand
TTITLE16=Pent Up In A Penthouse
TTITLE17=Honeysuckle Rose
TTITLE18=Yacht Club Swing
TTITLE19=You Look Good To Me
TTITLE20=Hallelujah
TTITLE21=That Ain't Right
TTITLE22=Reefer Man
TTITLE23=That's What The Bird Said To Me
EXTD=
EXTT0=
EXTT1=
EXTT2=
EXTT3=
EXTT4=
EXTT5=
EXTT6=
EXTT7=
EXTT8=
EXTT9=
EXTT10=
EXTT11=
EXTT12=
EXTT13=
EXTT14=
EXTT15=
EXTT16=
EXTT17=
EXTT18=
EXTT19=
EXTT20=
EXTT21=
EXTT22=
EXTT23=
PLAYORDER=
